<svg xmlns="http://www.w3.org/2000/svg" viewBox="0 0 64 64" role="img" aria-label="Burn-In.js icon">
  <rect width="64" height="64" rx="14" fill="#100e0c" />
  <path
    d="M34 55c9.4-2.2 15.7-9.5 15.7-18.2 0-7.4-4.4-12.6-9.8-18.2-1.1 5.3-3.4 8.6-7 10.3 1.2-7.5-2.6-14.1-9.1-19.9.6 9-5.5 13.2-8.1 20.4C11 42.2 20.6 54.8 34 55Z"
    fill="#ff7b32"
  />
  <path
    d="M33 52c5.8-1.8 9.2-6.3 9.2-11.8 0-4.7-2.2-8.3-5.7-12.1-.7 3.8-2.7 6.1-5.9 7.6.8-5.3-1.8-10-6.2-14.2.4 6.2-3.4 9.8-5 14.4C16.3 44.9 23.3 52.8 33 52Z"
    fill="#ffd18a"
  />
  <path
    d="M34.4 50.6c3.3-1.5 5.2-4.1 5.2-7.4 0-3.1-1.5-5.7-4-8.3-.6 2.3-1.9 4-4.1 5.3.3-3.8-1.7-7.2-5.3-10.3.5 4.4-2.1 7.3-3.1 10.3-1.9 5.8 3.2 11.2 11.3 10.4Z"
    fill="#fff6dc"
  />
</svg>
