<svg xmlns="http://www.w3.org/2000/svg" width="1200" height="630" viewBox="0 0 1200 630" role="img" aria-label="Burn-In.js social preview">
  <defs>
    <linearGradient id="background" x1="0" x2="1" y1="0" y2="1">
      <stop offset="0" stop-color="#100e0c" />
      <stop offset="0.54" stop-color="#21130d" />
      <stop offset="1" stop-color="#071111" />
    </linearGradient>
    <linearGradient id="flame" x1="0" x2="0" y1="0" y2="1">
      <stop offset="0" stop-color="#fff6dc" />
      <stop offset="0.32" stop-color="#ffd18a" />
      <stop offset="0.68" stop-color="#ff7b32" />
      <stop offset="1" stop-color="#77220f" />
    </linearGradient>
    <filter id="soft-shadow" x="-20%" y="-20%" width="140%" height="150%">
      <feDropShadow dx="0" dy="26" stdDeviation="28" flood-color="#000000" flood-opacity="0.5" />
    </filter>
  </defs>

  <rect width="1200" height="630" fill="url(#background)" />
  <path d="M0 470C158 430 278 472 420 452C599 426 704 331 886 352C1019 367 1115 433 1200 421V630H0Z" fill="#0d2423" opacity="0.72" />
  <g transform="translate(610 124) scale(0.5)">
    <path d="M789 540c121-29 202-123 202-235 0-95-57-162-126-234-14 68-44 111-90 132 15-96-33-181-117-255 8 116-71 169-104 262-60 164 63 326 235 330Z" fill="#42150c" opacity="0.5" />
    <path d="M782 523c103-25 172-105 172-201 0-81-48-138-107-199-12 58-37 95-77 113 13-82-28-154-99-217 7 99-60 144-89 223-51 141 54 278 200 281Z" fill="url(#flame)" filter="url(#soft-shadow)" />
    <path d="M786 505c66-21 105-72 105-134 0-53-25-94-65-137-8 43-31 69-67 86 9-60-20-114-71-162 4 71-39 112-58 164-36 102 44 191 156 183Z" fill="#fff3cf" opacity="0.9" />
  </g>

  <g filter="url(#soft-shadow)">
    <text x="92" y="192" fill="#8fe8df" font-family="Inter, Arial, sans-serif" font-size="34" font-weight="800">TYPESCRIPT CANVAS EFFECT</text>
    <text x="88" y="318" fill="#fff7e6" font-family="Inter, Arial, sans-serif" font-size="118" font-weight="900">Burn-In.js</text>
    <text x="96" y="398" fill="#f8f0dc" fill-opacity="0.84" font-family="Inter, Arial, sans-serif" font-size="38" font-weight="500">
      Fire and smoke reveal effects for DOM text,
    </text>
    <text x="96" y="450" fill="#f8f0dc" fill-opacity="0.84" font-family="Inter, Arial, sans-serif" font-size="38" font-weight="500">
      images, canvas, and Vue components.
    </text>
  </g>

  <g transform="translate(96 504)">
    <rect width="530" height="68" rx="8" fill="#071111" stroke="#8fe8df" stroke-opacity="0.42" />
    <text x="28" y="44" fill="#d9fffb" font-family="SFMono-Regular, Consolas, monospace" font-size="27">npm install @gogospace/burn-in</text>
  </g>
</svg>
